<svg width="24" height="24" viewBox="0 0 24 24" fill="none" xmlns="http://www.w3.org/2000/svg">
<path d="M0.950195 20.0001V17.6501C0.950195 17.0668 1.1002 16.5376 1.4002 16.0626C1.7002 15.5876 2.11686 15.2334 2.6502 15.0001C3.86686 14.4668 4.9627 14.0834 5.9377 13.8501C6.9127 13.6168 7.91686 13.5001 8.9502 13.5001C9.98353 13.5001 10.9835 13.6168 11.9502 13.8501C12.9169 14.0834 14.0085 14.4668 15.2252 15.0001C15.7585 15.2334 16.1794 15.5876 16.4877 16.0626C16.796 16.5376 16.9502 17.0668 16.9502 17.6501V20.0001H0.950195ZM18.4502 20.0001V17.6501C18.4502 16.6001 18.1835 15.7376 17.6502 15.0626C17.1169 14.3876 16.4169 13.8418 15.5502 13.4251C16.7002 13.5584 17.7835 13.7543 18.8002 14.0126C19.8169 14.2709 20.6419 14.5668 21.2752 14.9001C21.8252 15.2168 22.2585 15.6084 22.5752 16.0751C22.8919 16.5418 23.0502 17.0668 23.0502 17.6501V20.0001H18.4502ZM8.9502 11.9751C7.8502 11.9751 6.9502 11.6251 6.2502 10.9251C5.5502 10.2251 5.2002 9.3251 5.2002 8.2251C5.2002 7.1251 5.5502 6.2251 6.2502 5.5251C6.9502 4.8251 7.8502 4.4751 8.9502 4.4751C10.0502 4.4751 10.9502 4.8251 11.6502 5.5251C12.3502 6.2251 12.7002 7.1251 12.7002 8.2251C12.7002 9.3251 12.3502 10.2251 11.6502 10.9251C10.9502 11.6251 10.0502 11.9751 8.9502 11.9751ZM17.9502 8.2251C17.9502 9.3251 17.6002 10.2251 16.9002 10.9251C16.2002 11.6251 15.3002 11.9751 14.2002 11.9751C14.0169 11.9751 13.8127 11.9626 13.5877 11.9376C13.3627 11.9126 13.1585 11.8668 12.9752 11.8001C13.3752 11.3834 13.6794 10.8709 13.8877 10.2626C14.096 9.65426 14.2002 8.9751 14.2002 8.2251C14.2002 7.4751 14.096 6.8126 13.8877 6.2376C13.6794 5.6626 13.3752 5.13343 12.9752 4.6501C13.1585 4.6001 13.3627 4.55843 13.5877 4.5251C13.8127 4.49176 14.0169 4.4751 14.2002 4.4751C15.3002 4.4751 16.2002 4.8251 16.9002 5.5251C17.6002 6.2251 17.9502 7.1251 17.9502 8.2251ZM2.4502 18.5001H15.4502V17.6501C15.4502 17.3834 15.371 17.1251 15.2127 16.8751C15.0544 16.6251 14.8585 16.4501 14.6252 16.3501C13.4252 15.8168 12.4169 15.4584 11.6002 15.2751C10.7835 15.0918 9.9002 15.0001 8.9502 15.0001C8.0002 15.0001 7.1127 15.0918 6.2877 15.2751C5.4627 15.4584 4.4502 15.8168 3.2502 16.3501C3.01686 16.4501 2.8252 16.6251 2.6752 16.8751C2.5252 17.1251 2.4502 17.3834 2.4502 17.6501V18.5001ZM8.9502 10.4751C9.60019 10.4751 10.1377 10.2626 10.5627 9.8376C10.9877 9.4126 11.2002 8.8751 11.2002 8.2251C11.2002 7.5751 10.9877 7.0376 10.5627 6.6126C10.1377 6.1876 9.60019 5.9751 8.9502 5.9751C8.3002 5.9751 7.7627 6.1876 7.3377 6.6126C6.9127 7.0376 6.7002 7.5751 6.7002 8.2251C6.7002 8.8751 6.9127 9.4126 7.3377 9.8376C7.7627 10.2626 8.3002 10.4751 8.9502 10.4751Z" fill="#1973FB"/>
</svg>
