<svg width="24" height="24" viewBox="0 0 24 24" fill="none" xmlns="http://www.w3.org/2000/svg">
<path d="M19.3 8.1251L18.225 5.6251L15.625 4.4751L18.225 3.3501L19.3 0.975098L20.375 3.3501L22.975 4.4751L20.375 5.6251L19.3 8.1251ZM19.3 23.0001L18.225 20.6001L15.625 19.4751L18.225 18.3501L19.3 15.8251L20.375 18.3501L22.975 19.4751L20.375 20.6001L19.3 23.0001ZM8.325 19.1501L6.025 14.2251L1 11.9751L6.025 9.7251L8.325 4.8251L10.65 9.7251L15.65 11.9751L10.65 14.2251L8.325 19.1501ZM8.325 15.4501L9.525 13.0501L11.975 11.9751L9.525 10.9001L8.325 8.5001L7.15 10.9001L4.675 11.9751L7.15 13.0501L8.325 15.4501Z" fill="#1973FB"/>
</svg>
